<svg xmlns="http://www.w3.org/2000/svg" viewBox="0 0 320 280" fill="none" aria-hidden="true">
  <defs>
    <linearGradient id="cover" x1="0%" y1="0%" x2="100%" y2="100%">
      <stop offset="0%" stop-color="#1e3a5f"/>
      <stop offset="100%" stop-color="#0f172a"/>
    </linearGradient>
    <linearGradient id="accent" x1="0%" y1="0%" x2="100%" y2="0%">
      <stop offset="0%" stop-color="#3b82f6"/>
      <stop offset="100%" stop-color="#6366f1"/>
    </linearGradient>
  </defs>
  <rect width="320" height="280" rx="16" fill="#020617" opacity="0.4"/>
  <g transform="translate(40 36)">
    <rect x="0" y="20" width="100" height="180" rx="6" fill="url(#cover)" stroke="#334155" stroke-width="2"/>
    <rect x="8" y="32" width="84" height="8" rx="2" fill="url(#accent)" opacity="0.9"/>
    <rect x="8" y="48" width="72" height="4" rx="1" fill="#64748b" opacity="0.6"/>
    <rect x="8" y="58" width="64" height="4" rx="1" fill="#64748b" opacity="0.45"/>
    <rect x="8" y="68" width="76" height="4" rx="1" fill="#64748b" opacity="0.35"/>
    <rect x="24" y="100" width="52" height="72" rx="4" fill="#0f172a" stroke="#475569"/>
    <path d="M44 118h32M44 130h24M44 142h28" stroke="#94a3b8" stroke-width="2" stroke-linecap="round"/>
  </g>
  <g transform="translate(110 24)">
    <rect x="0" y="0" width="110" height="200" rx="8" fill="#1e293b" stroke="#475569" stroke-width="2"/>
    <rect x="12" y="16" width="86" height="10" rx="2" fill="#3b82f6"/>
    <rect x="12" y="36" width="78" height="5" rx="1" fill="#64748b"/>
    <rect x="12" y="46" width="70" height="5" rx="1" fill="#64748b" opacity="0.7"/>
    <rect x="12" y="56" width="82" height="5" rx="1" fill="#64748b" opacity="0.5"/>
    <circle cx="55" cy="120" r="28" fill="#0f172a" stroke="#3b82f6" stroke-width="2"/>
    <path d="M55 104v32M41 120h28" stroke="#60a5fa" stroke-width="3" stroke-linecap="round"/>
  </g>
  <g transform="translate(200 44)">
    <rect x="0" y="12" width="88" height="168" rx="6" fill="url(#cover)" stroke="#334155" stroke-width="2" opacity="0.95"/>
    <rect x="10" y="26" width="68" height="6" rx="2" fill="#22c55e" opacity="0.85"/>
    <rect x="10" y="40" width="56" height="4" rx="1" fill="#64748b" opacity="0.5"/>
    <rect x="10" y="50" width="62" height="4" rx="1" fill="#64748b" opacity="0.35"/>
  </g>
</svg>
